<svg xmlns="http://www.w3.org/2000/svg" width="32" height="40" viewBox="0 0 32 40" fill="none">
    <style>
        path {
            fill: #292929;
        }
        @media (prefers-color-scheme: dark) {
            path {
                fill: #ffda40;
            }
        }
    </style>
    <g clip-path="url(#clip0_639_3503)">
        <path d="M18.7962 2.23211C18.7282 2.1802 18.6565 2.12088 18.5772 2.05413C17.6372 1.28661 16.0668 0 13.2355 0C12.7749 0 12.4012 0.367075 12.4012 0.823137V7.03003C6.24778 7.4416 0 12.3359 0 20C0 31.2087 7.59171 37.7049 7.67099 37.7679C7.73894 37.8198 7.81067 37.8791 7.88995 37.9459C8.82994 38.7134 10.4004 40 13.2317 40C13.6923 40 14.0698 39.6329 14.0698 39.1769V32.97C20.2194 32.5584 26.4672 27.6641 26.4672 20C26.4672 8.76529 18.8755 2.29514 18.7962 2.23211ZM24.7004 17.9236L14.4171 7.82351L18.2903 4.01928C19.9061 5.64702 24.036 10.4857 24.7042 17.9236H24.7004ZM14.0698 5.84353V1.69077C15.4175 1.8502 16.3122 2.38413 17.0294 2.93289L14.0698 5.83982V5.84353ZM24.7646 20.8194C24.3418 26.9781 19.1058 30.9307 14.0698 31.3237V25.495L18.4036 20.8194H24.7646ZM14.0698 19.1769V9.80349L23.6132 19.1769H14.0698ZM14.0698 23.0552V20.8194H16.1423L14.0698 23.0552ZM12.3974 34.1565V38.3055C11.0497 38.1461 10.155 37.6122 9.43774 37.0634L12.3974 34.1565ZM1.70257 19.1769C2.12915 13.0182 7.36143 9.06563 12.3974 8.67631V14.505L8.0636 19.1769H1.70257ZM12.3974 20.8194V30.1965L2.8502 20.8194H12.3974ZM12.3974 16.941V19.1769H10.3249L12.3974 16.941ZM12.0501 32.1765L8.18063 35.9807C6.56489 34.353 2.43494 29.5143 1.76674 22.0764L12.0501 32.1802V32.1765Z" />
    </g>
    <defs>
        <clipPath id="clip0_639_3503">
            <rect width="151" height="40" />
        </clipPath>
    </defs>
</svg>